<?xml version="1.0" standalone="no"?>
<!DOCTYPE svg PUBLIC "-//W3C//DTD SVG 20010904//EN"
 "http://www.w3.org/TR/2001/REC-SVG-20010904/DTD/svg10.dtd">
<svg version="1.0" xmlns="http://www.w3.org/2000/svg"
 width="658.000000pt" height="119.000000pt" viewBox="0 0 658.000000 119.000000"
 preserveAspectRatio="xMidYMid meet">

<g transform="translate(0.000000,119.000000) scale(0.100000,-0.100000)"
fill="#2c2c5e" stroke="none">
<path d="M0 595 l0 -595 610 0 610 0 0 595 0 595 -610 0 -610 0 0 -595z m795
253 c66 -37 106 -67 113 -83 16 -35 15 -253 -1 -284 -15 -30 -311 -204 -347
-204 -31 0 -236 117 -250 143 -17 31 -13 272 5 297 14 19 269 174 317 192 32
11 49 5 163 -61z"/>
<path d="M630 835 c0 -32 5 -37 73 -76 39 -23 78 -49 85 -57 7 -10 12 -48 12
-101 0 -85 0 -86 30 -103 l30 -17 0 117 c0 90 -4 123 -16 140 -13 19 -191 132
-208 132 -3 0 -6 -16 -6 -35z"/>
<path d="M510 763 c0 -37 3 -40 78 -83 l77 -45 5 -94 c5 -95 5 -95 38 -114
l32 -19 0 110 c0 61 -4 122 -9 136 -7 16 -40 42 -93 74 -139 82 -128 79 -128
35z"/>
<path d="M388 689 c-16 -9 -18 -26 -18 -124 l0 -113 89 -51 c48 -28 95 -51
103 -51 36 0 48 33 48 138 0 115 7 104 -121 175 -72 40 -76 41 -101 26z"/>
<path d="M1734 1011 c-62 -28 -93 -78 -118 -193 -6 -26 -10 -28 -60 -28 -61 0
-79 -14 -74 -57 3 -26 6 -28 56 -31 28 -2 52 -5 52 -7 0 -2 -20 -97 -45 -212
-25 -114 -45 -218 -45 -230 0 -20 5 -23 39 -23 22 0 43 5 47 12 4 6 28 111 54
232 l46 221 80 5 c74 5 80 7 92 33 23 48 11 57 -73 57 -83 0 -82 -1 -62 69 19
62 46 81 118 81 48 0 60 4 73 22 9 12 16 33 16 45 0 22 -3 23 -77 23 -54 0
-91 -6 -119 -19z"/>
<path d="M2090 985 c-19 -22 -29 -82 -17 -94 6 -6 28 -11 49 -11 50 0 75 39
69 108 -1 18 -85 16 -101 -3z"/>
<path d="M2442 992 c-12 -8 -162 -687 -162 -737 0 -22 4 -25 39 -25 33 0 40 4
49 28 20 51 155 710 149 726 -7 17 -53 22 -75 8z"/>
<path d="M3461 986 c-12 -14 -161 -693 -161 -733 0 -20 5 -23 40 -23 36 0 43
4 53 30 12 26 14 27 24 11 30 -49 148 -66 240 -35 127 43 213 184 213 352 0
82 -29 144 -83 180 -36 24 -51 27 -122 27 -72 0 -86 -3 -123 -28 -26 -16 -42
-22 -42 -15 1 7 11 60 24 118 12 58 21 111 19 118 -6 17 -68 15 -82 -2z m258
-291 c85 -43 65 -243 -33 -333 -71 -65 -166 -70 -218 -12 -24 26 -28 39 -28
89 0 115 53 215 134 252 49 22 107 24 145 4z"/>
<path d="M4933 988 c-4 -7 -17 -53 -28 -103 l-20 -90 -55 -5 c-52 -5 -55 -7
-64 -38 -11 -41 1 -52 57 -52 23 0 37 -5 37 -13 0 -7 -13 -75 -30 -152 -16
-77 -30 -157 -30 -178 0 -86 53 -127 164 -127 56 0 67 3 76 21 6 11 10 30 8
42 -3 19 -11 23 -63 27 -33 3 -66 9 -72 13 -20 13 -16 64 17 217 17 77 30 143
30 145 0 3 33 5 74 5 84 0 106 13 106 61 l0 29 -73 0 c-41 0 -76 2 -79 5 -2 3
4 44 14 92 10 47 17 92 14 100 -7 17 -72 17 -83 1z"/>
<path d="M2848 786 c-179 -64 -282 -364 -171 -497 55 -66 173 -88 276 -53 55
18 140 96 135 122 -6 32 -67 27 -122 -10 -38 -24 -63 -33 -107 -36 -56 -4 -60
-3 -94 31 -30 30 -35 42 -35 81 l0 46 195 0 195 0 16 25 c12 19 15 43 13 103
-5 97 -36 153 -102 183 -49 22 -144 25 -199 5z m178 -110 c28 -28 34 -42 34
-75 l0 -41 -155 0 -155 0 19 38 c36 70 99 111 175 112 42 0 52 -4 82 -34z"/>
<path d="M4252 783 c-57 -20 -137 -100 -166 -165 -100 -228 -27 -398 172 -398
115 0 205 54 260 158 32 60 62 163 62 217 0 82 -45 154 -115 186 -49 23 -152
24 -213 2z m178 -88 c44 -23 57 -77 42 -168 -15 -87 -50 -149 -104 -185 -34
-22 -53 -27 -106 -27 -59 0 -66 2 -93 33 -23 26 -29 41 -29 80 0 70 27 162 59
202 55 70 163 100 231 65z"/>
<path d="M2053 778 c-11 -14 -113 -491 -113 -526 0 -19 6 -22 39 -22 22 0 43
5 46 10 8 12 115 513 115 535 0 19 -73 21 -87 3z"/>
<path d="M5897 704 c-4 -4 -7 -18 -7 -31 0 -19 5 -23 31 -23 27 0 30 3 27 28
-3 26 -34 43 -51 26z"/>
<path d="M5563 570 c-13 -5 -23 -16 -23 -24 0 -11 13 -13 63 -9 73 6 86 -3 90
-63 l2 -39 -64 -6 c-54 -5 -69 -11 -89 -34 -20 -24 -23 -36 -20 -77 7 -65 29
-88 85 -88 24 0 57 7 73 15 26 14 30 13 39 -3 7 -13 13 -14 21 -6 8 8 11 55 8
151 -4 180 -11 193 -101 192 -34 0 -72 -4 -84 -9z m133 -228 c-8 -59 -20 -72
-67 -72 -28 0 -41 5 -49 19 -15 29 -12 66 8 84 16 15 87 27 106 18 4 -2 6 -24
2 -49z"/>
<path d="M5892 408 l3 -173 25 0 25 0 3 173 2 172 -30 0 -30 0 2 -172z"/>
<path d="M5337 294 c-4 -4 -7 -20 -7 -36 0 -25 4 -28 30 -28 34 0 49 23 33 49
-11 17 -44 26 -56 15z"/>
</g>
</svg>
